<svg width="603" height="239" viewBox="0 0 603 239" fill="none" xmlns="http://www.w3.org/2000/svg">
<path d="M176.523 93.2812C177.383 91.9531 178.496 90.4297 179.863 88.7109C181.27 86.9922 182.852 85.2734 184.609 83.5547C186.367 81.7969 188.281 80.1367 190.352 78.5742C192.461 77.0117 194.648 75.7422 196.914 74.7656C194.57 74.1797 192.07 73.7305 189.414 73.418C186.758 73.1055 183.906 72.9492 180.859 72.9492C176.719 72.9492 172.734 73.2422 168.906 73.8281C165.078 74.4141 161.523 75.3125 158.242 76.5234C154.961 77.7344 151.973 79.2969 149.277 81.2109C146.621 83.0859 144.336 85.3516 142.422 88.0078C140.508 90.6641 139.023 93.7109 137.969 97.1484C136.953 100.586 136.445 104.434 136.445 108.691C136.445 110.02 136.504 111.406 136.621 112.852C136.777 114.297 137.09 115.723 137.559 117.129C138.027 118.496 138.691 119.805 139.551 121.055C140.41 122.305 141.562 123.379 143.008 124.277L142.246 125.508C138.73 123.828 136.133 121.582 134.453 118.77C132.773 115.918 131.934 112.207 131.934 107.637C131.934 102.09 133.145 97.0508 135.566 92.5195C137.988 87.9883 141.348 84.1211 145.645 80.918C149.941 77.6758 155.059 75.1758 160.996 73.418C166.973 71.6211 173.496 70.7227 180.566 70.7227C187.91 70.7227 194.434 71.6797 200.137 73.5938C205.879 75.4688 210.703 78.1641 214.609 81.6797C218.555 85.1562 221.543 89.3359 223.574 94.2188C225.645 99.1016 226.68 104.531 226.68 110.508C226.68 114.219 226.289 117.871 225.508 121.465C224.727 125.059 223.633 128.516 222.227 131.836C220.859 135.156 219.199 138.32 217.246 141.328C215.332 144.297 213.223 147.031 210.918 149.531C208.613 152.031 206.055 154.375 203.242 156.562C200.43 158.711 197.324 160.586 193.926 162.188C190.566 163.789 186.934 165.039 183.027 165.938C179.121 166.875 174.922 167.344 170.43 167.344C167.695 167.344 165.098 167.188 162.637 166.875C160.176 166.562 157.871 166.152 155.723 165.645C153.613 165.176 151.68 164.668 149.922 164.121C148.203 163.535 146.699 162.988 145.41 162.48C142.559 164.121 139.59 165.332 136.504 166.113C133.457 166.895 130.215 167.285 126.777 167.285C124.355 167.285 122.383 167.109 120.859 166.758C119.336 166.445 118.145 165.996 117.285 165.41C116.426 164.863 115.82 164.238 115.469 163.535C115.156 162.832 115 162.129 115 161.426C115 160.02 115.449 158.906 116.348 158.086C117.285 157.266 118.457 156.641 119.863 156.211C121.27 155.742 122.793 155.449 124.434 155.332C126.113 155.176 127.695 155.098 129.18 155.098C132.383 155.098 135.352 155.312 138.086 155.742C140.859 156.133 143.516 156.719 146.055 157.5C147.266 156.133 148.477 154.531 149.688 152.695C150.938 150.82 152.207 148.652 153.496 146.191C154.785 143.73 156.113 140.957 157.48 137.871C158.887 134.785 160.352 131.328 161.875 127.5C163.711 122.891 165.293 118.945 166.621 115.664C167.949 112.344 169.082 109.531 170.02 107.227C170.957 104.883 171.738 102.949 172.363 101.426C173.027 99.9023 173.594 98.6523 174.062 97.6758C174.531 96.6602 174.941 95.8398 175.293 95.2148C175.684 94.5508 176.094 93.9062 176.523 93.2812ZM219.18 106.641C219.18 98.2812 217.52 91.543 214.199 86.4258C210.918 81.2695 205.879 77.5977 199.082 75.4102C198.027 75.957 196.992 76.582 195.977 77.2852C194.961 77.9883 194.004 78.75 193.105 79.5703C192.207 80.3906 191.367 81.25 190.586 82.1484C189.844 83.0469 189.18 83.9258 188.594 84.7852C188.125 85.4492 187.676 86.1914 187.246 87.0117C186.816 87.832 186.328 88.8281 185.781 90C185.273 91.1719 184.688 92.5781 184.023 94.2188C183.398 95.8594 182.656 97.832 181.797 100.137C180.938 102.402 179.941 105.059 178.809 108.105C177.676 111.152 176.387 114.668 174.941 118.652C171.27 128.613 167.422 136.895 163.398 143.496C159.375 150.098 155.059 155.273 150.449 159.023C151.934 159.57 153.555 160.176 155.312 160.84C157.07 161.465 158.965 162.051 160.996 162.598C163.027 163.145 165.156 163.594 167.383 163.945C169.648 164.297 172.012 164.473 174.473 164.473C178.34 164.473 181.875 164.023 185.078 163.125C188.281 162.188 191.191 160.918 193.809 159.316C196.465 157.715 198.848 155.859 200.957 153.75C203.105 151.602 205.039 149.316 206.758 146.895C208.633 144.199 210.332 141.27 211.855 138.105C213.379 134.902 214.688 131.562 215.781 128.086C216.875 124.609 217.715 121.074 218.301 117.48C218.887 113.848 219.18 110.234 219.18 106.641ZM127.188 165.176C130.117 165.176 132.773 164.922 135.156 164.414C137.539 163.867 139.824 162.793 142.012 161.191C141.23 160.957 140.137 160.645 138.73 160.254C137.324 159.824 135.781 159.434 134.102 159.082C132.461 158.691 130.762 158.359 129.004 158.086C127.285 157.812 125.664 157.676 124.141 157.676C122.148 157.676 120.508 157.969 119.219 158.555C117.969 159.141 117.344 160.117 117.344 161.484C117.344 161.992 117.461 162.48 117.695 162.949C117.969 163.379 118.457 163.77 119.16 164.121C119.902 164.434 120.898 164.688 122.148 164.883C123.438 165.078 125.117 165.176 127.188 165.176ZM263.008 166.113C255.938 166.113 250.488 164.277 246.66 160.605C242.832 156.895 240.918 151.387 240.918 144.082C240.918 142.09 241.074 139.98 241.387 137.754C241.66 135.527 242.109 133.242 242.734 130.898C244.141 125.664 246.113 120.82 248.652 116.367C251.23 111.914 254.18 108.066 257.5 104.824C260.82 101.582 264.395 99.043 268.223 97.207C272.051 95.3711 275.898 94.4531 279.766 94.4531C283.672 94.4531 286.738 95.3711 288.965 97.207C291.23 99.043 292.363 101.621 292.363 104.941C292.363 106.816 291.992 108.652 291.25 110.449C290.508 112.246 289.434 113.945 288.027 115.547C286.621 117.148 284.922 118.652 282.93 120.059C280.977 121.426 278.77 122.617 276.309 123.633C273.262 124.922 269.902 125.898 266.23 126.562C262.559 127.188 258.379 127.5 253.691 127.5C252.559 130.664 251.66 133.965 250.996 137.402C250.371 140.801 250.059 144.277 250.059 147.832C250.059 153.262 251.191 157.188 253.457 159.609C255.762 161.992 259.375 163.184 264.297 163.184C268.398 163.184 272.305 162.402 276.016 160.84C279.727 159.238 283.164 157.148 286.328 154.57C289.492 151.992 292.383 149.062 295 145.781C297.617 142.461 299.902 139.082 301.855 135.645L304.902 130.254L306.484 131.367L303.438 136.758C301.016 141.016 298.359 144.941 295.469 148.535C292.617 152.129 289.492 155.234 286.094 157.852C282.734 160.43 279.121 162.461 275.254 163.945C271.426 165.391 267.344 166.113 263.008 166.113ZM281.406 96.7969C278.945 96.7969 276.426 97.5195 273.848 98.9648C271.309 100.41 268.848 102.422 266.465 105C264.082 107.539 261.855 110.547 259.785 114.023C257.715 117.5 255.918 121.289 254.395 125.391C258.691 125.312 262.363 124.941 265.41 124.277C268.457 123.574 271.113 122.695 273.379 121.641C275.176 120.82 276.914 119.766 278.594 118.477C280.312 117.148 281.816 115.645 283.105 113.965C284.434 112.285 285.488 110.469 286.27 108.516C287.09 106.562 287.5 104.531 287.5 102.422C287.5 101.367 287.344 100.488 287.031 99.7852C286.719 99.082 286.289 98.5156 285.742 98.0859C285.195 97.6172 284.551 97.2852 283.809 97.0898C283.066 96.8945 282.266 96.7969 281.406 96.7969ZM317.617 95.5664H326.289L311.348 136.582C310.801 138.105 310.254 139.668 309.707 141.27C309.16 142.832 308.672 144.395 308.242 145.957C307.852 147.48 307.52 148.965 307.246 150.41C307.012 151.816 306.895 153.125 306.895 154.336C306.895 157.031 307.598 159.18 309.004 160.781C310.449 162.383 312.676 163.184 315.684 163.184C318.301 163.184 320.82 162.617 323.242 161.484C325.703 160.352 328.125 158.652 330.508 156.387C332.93 154.082 335.352 151.211 337.773 147.773C340.195 144.297 342.715 140.254 345.332 135.645L348.379 130.254L349.961 131.367L346.914 136.758C344.062 141.797 341.328 146.172 338.711 149.883C336.133 153.555 333.535 156.602 330.918 159.023C328.34 161.406 325.703 163.184 323.008 164.355C320.312 165.527 317.441 166.113 314.395 166.113C312.012 166.113 309.902 165.742 308.066 165C306.27 164.297 304.766 163.281 303.555 161.953C302.305 160.625 301.367 159.023 300.742 157.148C300.117 155.273 299.805 153.184 299.805 150.879C299.805 148.848 300.059 146.621 300.566 144.199C301.035 141.777 301.738 139.238 302.676 136.582L317.617 95.5664ZM322.305 80.2148C322.305 78.8477 322.773 77.6758 323.711 76.6992C324.688 75.7227 325.859 75.2344 327.227 75.2344C328.594 75.2344 329.746 75.7227 330.684 76.6992C331.66 77.6367 332.148 78.7891 332.148 80.1562C332.148 80.8203 332.012 81.4648 331.738 82.0898C331.504 82.6758 331.152 83.1836 330.684 83.6133C330.254 84.043 329.727 84.3945 329.102 84.668C328.516 84.9023 327.871 85.0195 327.168 85.0195C325.801 85.0195 324.648 84.5703 323.711 83.6719C322.773 82.7344 322.305 81.582 322.305 80.2148ZM343.809 95.5664H360.918L366.484 80.2148H375.156L369.59 95.5664H387.168V97.9102H368.711L354.648 136.582C354.102 138.105 353.555 139.668 353.008 141.27C352.5 142.871 352.031 144.453 351.602 146.016C351.211 147.539 350.879 149.023 350.605 150.469C350.371 151.875 350.254 153.164 350.254 154.336C350.254 157.031 350.977 159.18 352.422 160.781C353.906 162.383 356.133 163.184 359.102 163.184C361.992 163.184 364.805 162.637 367.539 161.543C370.273 160.449 372.969 158.77 375.625 156.504C378.281 154.238 380.918 151.387 383.535 147.949C386.152 144.473 388.789 140.371 391.445 135.645L394.492 130.254L396.074 131.367L393.027 136.758C389.941 142.227 386.953 146.836 384.062 150.586C381.172 154.297 378.301 157.305 375.449 159.609C372.637 161.914 369.766 163.574 366.836 164.59C363.945 165.605 360.938 166.113 357.812 166.113C355.43 166.113 353.32 165.742 351.484 165C349.648 164.297 348.125 163.281 346.914 161.953C345.664 160.625 344.727 159.023 344.102 157.148C343.438 155.273 343.105 153.184 343.105 150.879C343.105 148.848 343.34 146.621 343.809 144.199C344.277 141.777 345 139.238 345.977 136.582L360.039 97.9102H343.809V95.5664ZM407.09 95.5664H415.762L400.82 136.582C400.273 138.105 399.727 139.668 399.18 141.27C398.633 142.832 398.145 144.395 397.715 145.957C397.324 147.48 396.992 148.965 396.719 150.41C396.484 151.816 396.367 153.125 396.367 154.336C396.367 157.031 397.09 159.18 398.535 160.781C399.98 162.383 402.188 163.184 405.156 163.184C407.773 163.184 410.293 162.617 412.715 161.484C415.137 160.312 417.539 158.594 419.922 156.328C422.305 154.023 424.707 151.152 427.129 147.715C429.59 144.277 432.148 140.254 434.805 135.645L437.91 130.312L450.508 95.5664H459.238L431.582 171.562C428.73 179.453 424.492 185.469 418.867 189.609C413.281 193.789 406.582 195.879 398.77 195.879C394.98 195.879 391.836 195.371 389.336 194.355C386.797 193.34 384.766 191.738 383.242 189.551C382.461 188.496 381.875 187.363 381.484 186.152C381.094 184.98 380.898 183.809 380.898 182.637C380.898 180.879 381.367 179.492 382.305 178.477C383.203 177.461 384.453 176.953 386.055 176.953C387.422 176.953 388.496 177.324 389.277 178.066C390.059 178.809 390.449 179.844 390.449 181.172C390.449 182.422 390.117 183.438 389.453 184.219C388.789 185 387.949 185.391 386.934 185.391C386.504 185.391 386.172 185.332 385.938 185.215C385.664 185.098 385.371 185.039 385.059 185.039C384.824 185.039 384.688 185.078 384.648 185.156C384.57 185.273 384.531 185.488 384.531 185.801C384.531 186.895 384.883 187.891 385.586 188.789C386.289 189.727 387.266 190.527 388.516 191.191C389.766 191.895 391.25 192.422 392.969 192.773C394.648 193.164 396.504 193.359 398.535 193.359C401.387 193.359 404.004 192.949 406.387 192.129C408.77 191.309 410.938 190.02 412.891 188.262C414.883 186.543 416.68 184.336 418.281 181.641C419.883 178.945 421.367 175.742 422.734 172.031L434.219 140.508C431.641 144.883 429.141 148.691 426.719 151.934C424.297 155.137 421.855 157.793 419.395 159.902C416.973 162.012 414.492 163.574 411.953 164.59C409.414 165.605 406.719 166.113 403.867 166.113C401.484 166.113 399.375 165.742 397.539 165C395.742 164.297 394.238 163.281 393.027 161.953C391.777 160.625 390.84 159.023 390.215 157.148C389.59 155.273 389.277 153.184 389.277 150.879C389.277 148.848 389.531 146.621 390.039 144.199C390.508 141.777 391.211 139.238 392.148 136.582L407.09 95.5664Z" fill="black"/>
<path d="M176.523 93.2812L177.265 93.7911L177.272 93.7807L177.279 93.7702L176.523 93.2812ZM179.863 88.7109L179.167 88.141L179.159 88.1507L179.863 88.7109ZM184.609 83.5547L185.239 84.1982L185.246 84.1911L184.609 83.5547ZM190.352 78.5742L189.816 77.851L189.809 77.8558L190.352 78.5742ZM196.914 74.7656L197.27 75.5921L199.715 74.5382L197.132 73.8925L196.914 74.7656ZM149.277 81.2109L149.796 81.9462L149.798 81.9447L149.277 81.2109ZM137.969 97.1484L137.108 96.8844L137.106 96.8934L137.969 97.1484ZM136.621 112.852L135.724 112.924L135.725 112.936L135.726 112.948L136.621 112.852ZM137.559 117.129L136.705 117.414L136.707 117.421L137.559 117.129ZM143.008 124.277L143.773 124.751L144.246 123.987L143.483 123.513L143.008 124.277ZM142.246 125.508L141.858 126.32L142.586 126.668L143.011 125.982L142.246 125.508ZM134.453 118.77L133.678 119.226L133.68 119.231L134.453 118.77ZM145.645 80.918L146.182 81.6396L146.187 81.6364L145.645 80.918ZM160.996 73.418L161.252 74.281L161.255 74.2799L160.996 73.418ZM200.137 73.5938L199.85 74.447L199.857 74.4493L200.137 73.5938ZM214.609 81.6797L214.007 82.3487L214.014 82.3549L214.609 81.6797ZM223.574 94.2188L222.743 94.5644L222.746 94.5701L223.574 94.2188ZM222.227 131.836L221.398 131.485L221.394 131.493L222.227 131.836ZM217.246 141.328L216.491 140.838L216.49 140.84L217.246 141.328ZM203.242 156.562L203.789 157.278L203.795 157.273L203.242 156.562ZM193.926 162.188L193.542 161.373L193.538 161.375L193.926 162.188ZM183.027 165.938L182.826 165.06L182.817 165.062L183.027 165.938ZM155.723 165.645L155.93 164.769L155.918 164.766L155.723 165.645ZM149.922 164.121L149.631 164.973L149.643 164.977L149.655 164.98L149.922 164.121ZM145.41 162.48L145.74 161.643L145.337 161.484L144.961 161.7L145.41 162.48ZM136.504 166.113L136.283 165.241L136.28 165.241L136.504 166.113ZM120.859 166.758L121.062 165.881L121.051 165.878L121.04 165.876L120.859 166.758ZM117.285 165.41L117.792 164.667L117.78 164.659L117.768 164.651L117.285 165.41ZM115.469 163.535L114.646 163.901L114.655 163.919L114.664 163.938L115.469 163.535ZM116.348 158.086L115.755 157.409L115.748 157.415L115.741 157.421L116.348 158.086ZM119.863 156.211L120.126 157.072L120.137 157.068L120.148 157.065L119.863 156.211ZM124.434 155.332L124.498 156.23L124.507 156.229L124.517 156.228L124.434 155.332ZM138.086 155.742L137.946 156.631L137.953 156.632L137.96 156.633L138.086 155.742ZM146.055 157.5L145.79 158.36L146.344 158.531L146.728 158.097L146.055 157.5ZM149.688 152.695L148.939 152.196L148.936 152.2L149.688 152.695ZM157.48 137.871L156.661 137.498L156.658 137.507L157.48 137.871ZM161.875 127.5L161.039 127.167L161.039 127.167L161.875 127.5ZM166.621 115.664L167.455 116.002L167.457 115.998L166.621 115.664ZM170.02 107.227L170.853 107.566L170.855 107.561L170.02 107.227ZM172.363 101.426L171.538 101.066L171.534 101.075L171.531 101.084L172.363 101.426ZM174.062 97.6758L174.874 98.0653L174.88 98.0529L174.062 97.6758ZM175.293 95.2148L174.517 94.7585L174.513 94.766L174.509 94.7736L175.293 95.2148ZM214.199 86.4258L213.44 86.909L213.444 86.9157L214.199 86.4258ZM199.082 75.4102L199.358 74.5534L199.001 74.4385L198.668 74.6112L199.082 75.4102ZM190.586 82.1484L189.907 81.5579L189.899 81.5665L189.892 81.5752L190.586 82.1484ZM188.594 84.7852L189.329 85.3042L189.333 85.2982L189.337 85.2922L188.594 84.7852ZM185.781 90L184.966 89.6194L184.96 89.6307L184.955 89.6422L185.781 90ZM184.023 94.2188L183.189 93.8811L183.186 93.8897L183.182 93.8984L184.023 94.2188ZM181.797 100.137L182.638 100.456L182.64 100.451L181.797 100.137ZM178.809 108.105L177.965 107.792L178.809 108.105ZM174.941 118.652L175.786 118.964L175.787 118.959L174.941 118.652ZM150.449 159.023L149.881 158.325L148.656 159.322L150.138 159.868L150.449 159.023ZM155.312 160.84L154.994 161.682L155.003 161.685L155.011 161.688L155.312 160.84ZM167.383 163.945L167.242 164.834L167.245 164.835L167.383 163.945ZM185.078 163.125L185.321 163.992L185.331 163.989L185.078 163.125ZM193.809 159.316L193.344 158.546L193.339 158.549L193.809 159.316ZM206.758 146.895L207.492 147.415L207.497 147.408L206.758 146.895ZM211.855 138.105L212.666 138.496L212.668 138.492L211.855 138.105ZM218.301 117.48L219.189 117.625L219.189 117.624L218.301 117.48ZM135.156 164.414L135.344 165.294L135.358 165.291L135.156 164.414ZM142.012 161.191L142.543 161.918L144.003 160.849L142.27 160.329L142.012 161.191ZM138.73 160.254L138.467 161.115L138.478 161.118L138.49 161.121L138.73 160.254ZM134.102 159.082L133.893 159.958L133.905 159.96L133.917 159.963L134.102 159.082ZM129.004 158.086L128.863 158.975L128.866 158.975L129.004 158.086ZM119.219 158.555L118.846 157.735L118.837 157.74L119.219 158.555ZM117.695 162.949L116.89 163.352L116.911 163.393L116.936 163.432L117.695 162.949ZM119.16 164.121L118.758 164.926L118.784 164.939L118.811 164.951L119.16 164.121ZM122.148 164.883L122.009 165.772L122.014 165.773L122.148 164.883ZM177.279 93.7702C178.118 92.474 179.212 90.9751 180.568 89.2712L179.159 88.1507C177.78 89.8843 176.648 91.4322 175.768 92.7923L177.279 93.7702ZM180.56 89.2809C181.943 87.5904 183.502 85.8961 185.239 84.1982L183.98 82.9112C182.201 84.6508 180.596 86.394 179.167 88.141L180.56 89.2809ZM185.246 84.1911C186.973 82.464 188.855 80.8311 190.894 79.2926L189.809 77.8558C187.707 79.4424 185.762 81.1298 183.973 82.9183L185.246 84.1911ZM190.887 79.2974C192.945 77.7735 195.072 76.5396 197.27 75.5921L196.558 73.9391C194.225 74.9448 191.977 76.2499 189.816 77.851L190.887 79.2974ZM197.132 73.8925C194.748 73.2963 192.21 72.8406 189.519 72.5241L189.309 74.3118C191.931 74.6203 194.393 75.063 196.696 75.6388L197.132 73.8925ZM189.519 72.5241C186.824 72.207 183.937 72.0492 180.859 72.0492V73.8492C183.876 73.8492 186.692 74.0039 189.309 74.3118L189.519 72.5241ZM180.859 72.0492C176.676 72.0492 172.646 72.3452 168.77 72.9385L169.042 74.7178C172.823 74.1392 176.761 73.8492 180.859 73.8492V72.0492ZM168.77 72.9385C164.888 73.5326 161.274 74.4451 157.931 75.6791L158.554 77.3678C161.773 76.1799 165.268 75.2955 169.042 74.7178L168.77 72.9385ZM157.931 75.6791C154.579 76.9159 151.52 78.5146 148.756 80.4771L149.798 81.9447C152.425 80.0792 155.343 78.5528 158.554 77.3678L157.931 75.6791ZM148.758 80.4757C146.02 82.4086 143.664 84.7451 141.692 87.4817L143.152 88.534C145.008 85.9581 147.222 83.7633 149.796 81.9462L148.758 80.4757ZM141.692 87.4817C139.715 90.225 138.189 93.3622 137.108 96.8844L138.829 97.4124C139.858 94.0597 141.301 91.1031 143.152 88.534L141.692 87.4817ZM137.106 96.8934C136.061 100.428 135.545 104.363 135.545 108.691H137.345C137.345 104.504 137.845 100.744 138.832 97.4034L137.106 96.8934ZM135.545 108.691C135.545 110.046 135.605 111.457 135.724 112.924L137.518 112.779C137.403 111.356 137.345 109.993 137.345 108.691H135.545ZM135.726 112.948C135.89 114.459 136.216 115.947 136.705 117.414L138.412 116.844C137.964 115.498 137.665 114.135 137.516 112.755L135.726 112.948ZM136.707 117.421C137.204 118.869 137.906 120.251 138.809 121.565L140.292 120.545C139.477 119.359 138.851 118.123 138.41 116.837L136.707 117.421ZM138.809 121.565C139.747 122.929 140.995 124.086 142.533 125.042L143.483 123.513C142.13 122.672 141.073 121.681 140.292 120.545L138.809 121.565ZM142.243 123.804L141.481 125.034L143.011 125.982L143.773 124.751L142.243 123.804ZM142.634 124.696C139.248 123.078 136.799 120.941 135.226 118.308L133.68 119.231C135.467 122.223 138.213 124.578 141.858 126.32L142.634 124.696ZM135.229 118.313C133.656 115.643 132.834 112.105 132.834 107.637H131.034C131.034 112.309 131.891 116.193 133.678 119.226L135.229 118.313ZM132.834 107.637C132.834 102.226 134.014 97.3342 136.36 92.9438L134.773 92.0953C132.276 96.7673 131.034 101.954 131.034 107.637H132.834ZM136.36 92.9438C138.717 88.5343 141.987 84.7671 146.182 81.6395L145.107 80.1964C140.708 83.4751 137.26 87.4423 134.773 92.0953L136.36 92.9438ZM146.187 81.6364C150.385 78.4682 155.402 76.0127 161.252 74.2809L160.741 72.555C154.715 74.3389 149.497 76.8834 145.102 80.1995L146.187 81.6364ZM161.255 74.2799C167.137 72.5114 173.572 71.6227 180.566 71.6227V69.8227C173.42 69.8227 166.808 70.7308 160.737 72.5561L161.255 74.2799ZM180.566 71.6227C187.834 71.6227 194.257 72.5699 199.85 74.447L200.423 72.7405C194.61 70.7895 187.987 69.8227 180.566 69.8227V71.6227ZM199.857 74.4493C205.498 76.2911 210.207 78.9287 214.007 82.3487L215.211 81.0107C211.199 77.3994 206.26 74.6464 200.416 72.7382L199.857 74.4493ZM214.014 82.3549C217.856 85.7405 220.764 89.8072 222.743 94.5644L224.405 93.8731C222.322 88.8646 219.253 84.572 215.204 81.0044L214.014 82.3549ZM222.746 94.5701C224.763 99.3285 225.78 104.637 225.78 110.508H227.58C227.58 104.426 226.526 98.8746 224.403 93.8674L222.746 94.5701ZM225.78 110.508C225.78 114.155 225.396 117.743 224.628 121.274L226.387 121.656C227.182 117.999 227.58 114.282 227.58 110.508H225.78ZM224.628 121.274C223.859 124.814 222.782 128.217 221.398 131.485L223.055 132.187C224.484 128.814 225.594 125.303 226.387 121.656L224.628 121.274ZM221.394 131.493C220.048 134.762 218.414 137.877 216.491 140.838L218.001 141.818C219.984 138.764 221.67 135.55 223.059 132.179L221.394 131.493ZM216.49 140.84C214.603 143.767 212.525 146.461 210.256 148.921L211.58 150.141C213.921 147.602 216.062 144.826 218.003 141.816L216.49 140.84ZM210.256 148.921C207.987 151.383 205.465 153.694 202.69 155.852L203.795 157.273C206.644 155.056 209.24 152.679 211.58 150.141L210.256 148.921ZM202.696 155.847C199.937 157.955 196.886 159.797 193.542 161.373L194.309 163.002C197.762 161.375 200.922 159.467 203.789 157.278L202.696 155.847ZM193.538 161.375C190.243 162.946 186.673 164.176 182.826 165.06L183.229 166.815C187.194 165.903 190.89 164.632 194.313 163L193.538 161.375ZM182.817 165.062C178.987 165.982 174.859 166.444 170.43 166.444V168.244C174.984 168.244 179.255 167.768 183.237 166.813L182.817 165.062ZM170.43 166.444C167.729 166.444 165.17 166.289 162.75 165.982L162.523 167.768C165.025 168.086 167.661 168.244 170.43 168.244V166.444ZM162.75 165.982C160.317 165.673 158.044 165.268 155.93 164.769L155.516 166.52C157.698 167.036 160.035 167.452 162.523 167.768L162.75 165.982ZM155.918 164.766C153.829 164.302 151.92 163.8 150.189 163.262L149.655 164.98C151.44 165.536 153.398 166.05 155.527 166.523L155.918 164.766ZM150.212 163.269C148.503 162.687 147.013 162.144 145.74 161.643L145.08 163.318C146.386 163.832 147.903 164.384 149.631 164.973L150.212 163.269ZM144.961 161.7C142.179 163.301 139.286 164.48 136.283 165.241L136.725 166.986C139.893 166.184 142.938 164.941 145.859 163.261L144.961 161.7ZM136.28 165.241C133.313 166.002 130.146 166.385 126.777 166.385V168.185C130.283 168.185 133.601 167.787 136.727 166.985L136.28 165.241ZM126.777 166.385C124.391 166.385 122.493 166.211 121.062 165.881L120.657 167.635C122.273 168.008 124.32 168.185 126.777 168.185V166.385ZM121.04 165.876C119.581 165.577 118.517 165.161 117.792 164.667L116.778 166.154C117.772 166.832 119.091 167.314 120.679 167.639L121.04 165.876ZM117.768 164.651C117.007 164.166 116.534 163.653 116.274 163.133L114.664 163.938C115.107 164.824 115.845 165.56 116.802 166.169L117.768 164.651ZM116.291 163.17C116.025 162.571 115.9 161.992 115.9 161.426H114.1C114.1 162.266 114.288 163.093 114.646 163.901L116.291 163.17ZM115.9 161.426C115.9 160.229 116.273 159.373 116.954 158.751L115.741 157.421C114.626 158.439 114.1 159.81 114.1 161.426H115.9ZM116.94 158.763C117.766 158.04 118.82 157.471 120.126 157.072L119.6 155.35C118.094 155.81 116.804 156.491 115.755 157.409L116.94 158.763ZM120.148 157.065C121.475 156.622 122.924 156.342 124.498 156.23L124.369 154.434C122.662 154.556 121.064 154.862 119.579 155.357L120.148 157.065ZM124.517 156.228C126.173 156.074 127.727 155.998 129.18 155.998V154.198C127.664 154.198 126.054 154.277 124.35 154.436L124.517 156.228ZM129.18 155.998C132.343 155.998 135.265 156.21 137.946 156.631L138.226 154.853C135.439 154.415 132.422 154.198 129.18 154.198V155.998ZM137.96 156.633C140.689 157.018 143.299 157.594 145.79 158.36L146.319 156.64C143.732 155.844 141.029 155.248 138.211 154.851L137.96 156.633ZM146.728 158.097C147.973 156.692 149.209 155.055 150.439 153.191L148.936 152.2C147.744 154.007 146.559 155.574 145.381 156.903L146.728 158.097ZM150.436 153.195C151.707 151.288 152.993 149.092 154.293 146.609L152.699 145.774C151.421 148.213 150.168 150.353 148.939 152.196L150.436 153.195ZM154.293 146.609C155.593 144.127 156.93 141.336 158.303 138.236L156.658 137.507C155.297 140.578 153.977 143.333 152.699 145.774L154.293 146.609ZM158.299 138.244C159.713 135.143 161.183 131.672 162.711 127.833L161.039 127.167C159.52 130.985 158.061 134.428 156.661 137.498L158.299 138.244ZM162.711 127.833C164.547 123.225 166.128 119.281 167.455 116.002L165.787 115.326C164.458 118.61 162.875 122.557 161.039 127.167L162.711 127.833ZM167.457 115.998C168.784 112.679 169.917 109.868 170.853 107.566L169.186 106.887C168.247 109.194 167.114 112.009 165.785 115.33L167.457 115.998ZM170.855 107.561C171.792 105.218 172.572 103.287 173.196 101.767L171.531 101.084C170.904 102.611 170.122 104.547 169.184 106.892L170.855 107.561ZM173.188 101.785C173.85 100.267 174.412 99.0282 174.874 98.0652L173.251 97.2863C172.776 98.2765 172.205 99.5374 171.538 101.066L173.188 101.785ZM174.88 98.0529C175.343 97.0485 175.742 96.252 176.077 95.6561L174.509 94.7736C174.141 95.4277 173.719 96.2718 173.245 97.2986L174.88 98.0529ZM176.069 95.6712C176.449 95.0251 176.848 94.3984 177.265 93.7911L175.782 92.7714C175.34 93.4141 174.918 94.0765 174.517 94.7585L176.069 95.6712ZM220.08 106.641C220.08 98.1697 218.398 91.2437 214.954 85.9359L213.444 86.9157C216.641 91.8423 218.28 98.3928 218.28 106.641H220.08ZM214.959 85.9426C211.546 80.5803 206.319 76.7939 199.358 74.5534L198.806 76.2669C205.439 78.4014 210.29 81.9588 213.44 86.909L214.959 85.9426ZM198.668 74.6112C197.578 75.1763 196.51 75.8212 195.464 76.5452L196.489 78.0251C197.474 77.3429 198.477 76.7378 199.496 76.2091L198.668 74.6112ZM195.464 76.5452C194.416 77.2709 193.427 78.0577 192.499 78.9057L193.712 80.2349C194.581 79.4423 195.506 78.7056 196.489 78.0251L195.464 76.5452ZM192.499 78.9057C191.575 79.7488 190.711 80.6328 189.907 81.5579L191.265 82.739C192.023 81.8672 192.839 81.0325 193.712 80.2349L192.499 78.9057ZM189.892 81.5752C189.134 82.4925 188.453 83.3934 187.85 84.2782L189.337 85.2922C189.906 84.4581 190.553 83.6013 191.28 82.7216L189.892 81.5752ZM187.858 84.2661C187.364 84.9667 186.894 85.7434 186.449 86.5941L188.043 87.4293C188.457 86.6394 188.886 85.9317 189.329 85.3042L187.858 84.2661ZM186.449 86.5941C186.011 87.4303 185.516 88.4395 184.966 89.6194L186.597 90.3806C187.14 89.2167 187.622 88.2337 188.043 87.4293L186.449 86.5941ZM184.955 89.6422C184.444 90.8227 183.855 92.2361 183.189 93.8811L184.858 94.5564C185.52 92.9202 186.103 91.521 186.607 90.3578L184.955 89.6422ZM183.182 93.8984C182.556 95.5416 181.813 97.5163 180.954 99.8223L182.64 100.451C183.499 98.1477 184.24 96.1772 184.864 94.5391L183.182 93.8984ZM180.955 99.8175C180.095 102.086 179.098 104.744 177.965 107.792L179.652 108.419C180.785 105.374 181.78 102.719 182.638 100.456L180.955 99.8175ZM177.965 107.792C176.831 110.841 175.541 114.359 174.095 118.345L175.787 118.959C177.232 114.976 178.52 111.463 179.652 108.419L177.965 107.792ZM174.097 118.341C170.438 128.266 166.614 136.49 162.63 143.028L164.167 143.964C168.23 137.299 172.101 128.961 175.786 118.964L174.097 118.341ZM162.63 143.028C158.645 149.567 154.391 154.656 149.881 158.325L151.017 159.722C155.726 155.891 160.105 150.629 164.167 143.964L162.63 143.028ZM150.138 159.868C151.62 160.414 153.239 161.018 154.994 161.682L155.631 159.998C153.871 159.333 152.247 158.727 150.76 158.179L150.138 159.868ZM155.011 161.688C156.794 162.322 158.711 162.914 160.762 163.467L161.23 161.729C159.219 161.187 157.347 160.608 155.614 159.992L155.011 161.688ZM160.762 163.467C162.826 164.022 164.987 164.478 167.242 164.834L167.523 163.056C165.326 162.709 163.228 162.267 161.23 161.729L160.762 163.467ZM167.245 164.835C169.559 165.194 171.969 165.373 174.473 165.373V163.573C172.055 163.573 169.738 163.4 167.521 163.056L167.245 164.835ZM174.473 165.373C178.409 165.373 182.027 164.915 185.321 163.992L184.835 162.258C181.723 163.131 178.271 163.573 174.473 163.573V165.373ZM185.331 163.989C188.604 163.031 191.588 161.731 194.278 160.084L193.339 158.549C190.795 160.105 187.959 161.344 184.825 162.261L185.331 163.989ZM194.273 160.087C196.99 158.449 199.43 156.549 201.593 154.386L200.321 153.114C198.265 155.169 195.94 156.98 193.344 158.546L194.273 160.087ZM201.593 154.386C203.777 152.203 205.743 149.879 207.492 147.415L206.024 146.374C204.335 148.753 202.434 151 200.321 153.114L201.593 154.386ZM207.497 147.408C209.401 144.671 211.124 141.7 212.666 138.496L211.045 137.715C209.54 140.839 207.865 143.727 206.019 146.381L207.497 147.408ZM212.668 138.492C214.21 135.25 215.534 131.871 216.64 128.356L214.923 127.816C213.841 131.254 212.548 134.555 211.043 137.719L212.668 138.492ZM216.64 128.356C217.746 124.839 218.596 121.261 219.189 117.625L217.413 117.336C216.833 120.887 216.004 124.38 214.923 127.816L216.64 128.356ZM219.189 117.624C219.783 113.945 220.08 110.284 220.08 106.641H218.28C218.28 110.185 217.991 113.751 217.412 117.337L219.189 117.624ZM127.188 166.076C130.168 166.076 132.888 165.818 135.344 165.294L134.969 163.534C132.658 164.026 130.066 164.276 127.188 164.276V166.076ZM135.358 165.291C137.872 164.714 140.268 163.584 142.543 161.918L141.48 160.465C139.38 162.002 137.206 163.02 134.955 163.537L135.358 165.291ZM142.27 160.329C141.48 160.092 140.38 159.778 138.971 159.387L138.49 161.121C139.894 161.511 140.981 161.822 141.753 162.053L142.27 160.329ZM138.993 159.393C137.557 158.954 135.988 158.557 134.286 158.201L133.917 159.963C135.575 160.31 137.091 160.694 138.467 161.115L138.993 159.393ZM134.31 158.207C132.645 157.81 130.922 157.474 129.142 157.197L128.866 158.975C130.601 159.245 132.277 159.573 133.893 159.958L134.31 158.207ZM129.145 157.197C127.386 156.917 125.718 156.776 124.141 156.776V158.576C125.611 158.576 127.184 158.708 128.863 158.975L129.145 157.197ZM124.141 156.776C122.069 156.776 120.29 157.079 118.846 157.735L119.591 159.374C120.726 158.858 122.228 158.576 124.141 158.576V156.776ZM118.837 157.74C118.087 158.091 117.475 158.585 117.054 159.241C116.634 159.899 116.444 160.66 116.444 161.484H118.244C118.244 160.941 118.366 160.531 118.571 160.212C118.775 159.892 119.1 159.604 119.601 159.37L118.837 157.74ZM116.444 161.484C116.444 162.136 116.596 162.762 116.89 163.352L118.5 162.547C118.326 162.199 118.244 161.848 118.244 161.484H116.444ZM116.936 163.432C117.332 164.055 117.981 164.538 118.758 164.926L119.563 163.316C118.933 163.001 118.605 162.703 118.455 162.466L116.936 163.432ZM118.811 164.951C119.647 165.303 120.723 165.571 122.009 165.772L122.287 163.994C121.074 163.804 120.157 163.564 119.509 163.292L118.811 164.951ZM122.014 165.773C123.365 165.977 125.095 166.076 127.188 166.076V164.276C125.139 164.276 123.51 164.179 122.283 163.993L122.014 165.773ZM246.66 160.605L246.034 161.252L246.037 161.255L246.66 160.605ZM241.387 137.754L242.278 137.879L242.279 137.871L242.28 137.864L241.387 137.754ZM242.734 130.898L241.865 130.665L241.865 130.667L242.734 130.898ZM248.652 116.367L247.873 115.916L247.871 115.921L248.652 116.367ZM257.5 104.824L256.871 104.18L257.5 104.824ZM288.965 97.207L288.392 97.9014L288.398 97.9063L288.965 97.207ZM282.93 120.059L283.446 120.796L283.449 120.794L282.93 120.059ZM276.309 123.633L275.965 122.801L275.958 122.804L276.309 123.633ZM266.23 126.562L266.381 127.45L266.391 127.448L266.23 126.562ZM253.691 127.5V126.6H253.058L252.844 127.197L253.691 127.5ZM250.996 137.402L250.112 137.232L250.111 137.24L250.996 137.402ZM253.457 159.609L252.8 160.224L252.805 160.23L252.81 160.235L253.457 159.609ZM276.016 160.84L276.365 161.669L276.372 161.666L276.016 160.84ZM295 145.781L295.704 146.342L295.707 146.338L295 145.781ZM301.855 135.645L302.638 136.089L302.639 136.087L301.855 135.645ZM304.902 130.254L305.42 129.518L304.608 128.946L304.119 129.811L304.902 130.254ZM306.484 131.367L307.268 131.81L307.669 131.1L307.002 130.631L306.484 131.367ZM303.438 136.758L304.22 137.203L304.221 137.201L303.438 136.758ZM295.469 148.535L294.767 147.971L294.764 147.976L295.469 148.535ZM286.094 157.852L286.642 158.566L286.643 158.565L286.094 157.852ZM275.254 163.945L275.572 164.787L275.576 164.786L275.254 163.945ZM273.848 98.9648L273.408 98.1798L273.402 98.1827L273.848 98.9648ZM266.465 105L267.121 105.616L267.126 105.611L266.465 105ZM254.395 125.391L253.551 125.077L253.091 126.314L254.411 126.29L254.395 125.391ZM265.41 124.277L265.602 125.157L265.613 125.154L265.41 124.277ZM273.379 121.641L273.005 120.822L272.999 120.825L273.379 121.641ZM278.594 118.477L279.142 119.191L279.144 119.189L278.594 118.477ZM283.105 113.965L282.399 113.407L282.391 113.417L283.105 113.965ZM286.27 108.516L285.44 108.167L285.437 108.174L285.434 108.181L286.27 108.516ZM285.742 98.0859L285.156 98.7693L285.171 98.7818L285.186 98.7936L285.742 98.0859ZM263.008 165.213C256.09 165.213 250.894 163.419 247.283 159.956L246.037 161.255C250.083 165.135 255.785 167.013 263.008 167.013V165.213ZM247.287 159.959C243.69 156.473 241.818 151.236 241.818 144.082H240.018C240.018 151.538 241.974 157.316 246.034 161.252L247.287 159.959ZM241.818 144.082C241.818 142.137 241.971 140.069 242.278 137.879L240.495 137.629C240.178 139.892 240.018 142.043 240.018 144.082H241.818ZM242.28 137.864C242.548 135.681 242.989 133.437 243.604 131.13L241.865 130.667C241.23 133.047 240.772 135.373 240.493 137.644L242.28 137.864ZM243.604 131.132C244.991 125.968 246.935 121.196 249.434 116.813L247.871 115.921C245.291 120.445 243.29 125.361 241.865 130.665L243.604 131.132ZM249.431 116.818C251.973 112.428 254.873 108.647 258.129 105.468L256.871 104.18C253.486 107.486 250.488 111.4 247.873 115.916L249.431 116.818ZM258.129 105.468C261.385 102.288 264.88 99.8083 268.612 98.0185L267.833 96.3955C263.909 98.2777 260.255 100.876 256.871 104.18L258.129 105.468ZM268.612 98.0185C272.331 96.2351 276.046 95.3531 279.766 95.3531V93.5531C275.751 93.5531 271.771 94.5071 267.833 96.3955L268.612 98.0185ZM279.766 95.3531C283.537 95.3531 286.376 96.2388 288.392 97.9014L289.537 96.5126C287.101 94.5034 283.807 93.5531 279.766 93.5531V95.3531ZM288.398 97.9063C290.422 99.5463 291.463 101.85 291.463 104.941H293.263C293.263 101.392 292.039 98.5396 289.531 96.5078L288.398 97.9063ZM291.463 104.941C291.463 106.694 291.117 108.414 290.418 110.106L292.082 110.793C292.867 108.891 293.263 106.939 293.263 104.941H291.463ZM290.418 110.106C289.717 111.803 288.698 113.419 287.351 114.953L288.704 116.141C290.169 114.472 291.298 112.689 292.082 110.793L290.418 110.106ZM287.351 114.953C285.998 116.494 284.353 117.952 282.411 119.323L283.449 120.794C285.491 119.353 287.245 117.802 288.704 116.141L287.351 114.953ZM282.414 119.321C280.52 120.647 278.372 121.808 275.965 122.801L276.652 124.465C279.167 123.427 281.433 122.205 283.446 120.796L282.414 119.321ZM275.958 122.804C272.979 124.064 269.685 125.023 266.07 125.677L266.391 127.448C270.12 126.774 273.544 125.78 276.659 124.462L275.958 122.804ZM266.079 125.675C262.468 126.29 258.341 126.6 253.691 126.6V128.4C258.417 128.4 262.649 128.085 266.381 127.45L266.079 125.675ZM252.844 127.197C251.695 130.406 250.785 133.751 250.112 137.232L251.88 137.573C252.535 134.179 253.422 130.922 254.539 127.803L252.844 127.197ZM250.111 137.24C249.476 140.693 249.159 144.224 249.159 147.832H250.959C250.959 144.33 251.266 140.908 251.881 137.565L250.111 137.24ZM249.159 147.832C249.159 153.353 250.305 157.557 252.8 160.224L254.114 158.995C252.078 156.818 250.959 153.171 250.959 147.832H249.159ZM252.81 160.235C255.352 162.863 259.249 164.084 264.297 164.084V162.284C259.501 162.284 256.172 161.121 254.104 158.984L252.81 160.235ZM264.297 164.084C268.516 164.084 272.541 163.279 276.365 161.669L275.666 160.01C272.068 161.525 268.281 162.284 264.297 162.284V164.084ZM276.372 161.666C280.16 160.031 283.669 157.898 286.897 155.268L285.76 153.873C282.659 156.399 279.293 158.445 275.659 160.014L276.372 161.666ZM286.897 155.268C290.112 152.648 293.048 149.672 295.704 146.342L294.296 145.22C291.718 148.453 288.873 151.336 285.76 153.873L286.897 155.268ZM295.707 146.338C298.35 142.985 300.661 139.569 302.638 136.089L301.073 135.2C299.144 138.595 296.884 141.937 294.293 145.224L295.707 146.338ZM302.639 136.087L305.686 130.697L304.119 129.811L301.072 135.202L302.639 136.087ZM304.384 130.99L305.966 132.103L307.002 130.631L305.42 129.518L304.384 130.99ZM305.701 130.924L302.654 136.315L304.221 137.201L307.268 131.81L305.701 130.924ZM302.655 136.313C300.256 140.531 297.626 144.417 294.767 147.971L296.17 149.099C299.093 145.466 301.776 141.5 304.22 137.203L302.655 136.313ZM294.764 147.976C291.955 151.516 288.881 154.569 285.545 157.139L286.643 158.565C290.103 155.9 293.28 152.742 296.174 149.095L294.764 147.976ZM285.546 157.138C282.254 159.664 278.716 161.652 274.931 163.105L275.576 164.786C279.526 163.269 283.215 161.195 286.642 158.566L285.546 157.138ZM274.936 163.103C271.215 164.508 267.242 165.213 263.008 165.213V167.013C267.446 167.013 271.636 166.273 275.572 164.787L274.936 163.103ZM281.406 95.8969C278.763 95.8969 276.093 96.6742 273.408 98.1798L274.288 99.7499C276.758 98.3648 279.128 97.6969 281.406 97.6969V95.8969ZM273.402 98.1827C270.769 99.6818 268.237 101.756 265.804 104.389L267.126 105.611C269.458 103.087 271.848 101.138 274.293 99.747L273.402 98.1827ZM265.809 104.384C263.375 106.978 261.11 110.039 259.012 113.563L260.558 114.484C262.601 111.054 264.789 108.101 267.121 105.616L265.809 104.384ZM259.012 113.563C256.912 117.09 255.092 120.929 253.551 125.077L255.238 125.704C256.744 121.649 258.518 117.91 260.558 114.484L259.012 113.563ZM254.411 126.29C258.746 126.212 262.48 125.837 265.602 125.157L265.219 123.398C262.246 124.046 258.636 124.413 254.378 124.491L254.411 126.29ZM265.613 125.154C268.706 124.44 271.424 123.543 273.759 122.457L272.999 120.825C270.802 121.847 268.208 122.708 265.208 123.4L265.613 125.154ZM273.753 122.459C275.616 121.609 277.412 120.518 279.142 119.191L278.046 117.763C276.416 119.013 274.736 120.032 273.005 120.822L273.753 122.459ZM279.144 119.189C280.923 117.814 282.482 116.256 283.819 114.513L282.391 113.417C281.151 115.033 279.702 116.482 278.043 117.764L279.144 119.189ZM283.811 114.523C285.192 112.777 286.291 110.885 287.105 108.85L285.434 108.181C284.685 110.053 283.675 111.794 282.399 113.407L283.811 114.523ZM287.099 108.864C287.966 106.801 288.4 104.651 288.4 102.422H286.6C286.6 104.411 286.214 106.324 285.44 108.167L287.099 108.864ZM288.4 102.422C288.4 101.285 288.233 100.272 287.854 99.4196L286.209 100.151C286.455 100.704 286.6 101.449 286.6 102.422H288.4ZM287.854 99.4196C287.488 98.597 286.972 97.9079 286.298 97.3783L285.186 98.7936C285.606 99.1233 285.949 99.5671 286.209 100.151L287.854 99.4196ZM286.328 97.4026C285.671 96.8396 284.903 96.4471 284.038 96.2195L283.58 97.9602C284.199 98.1232 284.72 98.3947 285.156 98.7693L286.328 97.4026ZM284.038 96.2195C283.212 96.0023 282.334 95.8969 281.406 95.8969V97.6969C282.197 97.6969 282.92 97.7868 283.58 97.9602L284.038 96.2195ZM317.617 95.5664V94.6664H316.987L316.772 95.2584L317.617 95.5664ZM326.289 95.5664L327.135 95.8745L327.575 94.6664H326.289V95.5664ZM311.348 136.582L310.502 136.274L310.501 136.278L311.348 136.582ZM309.707 141.27L310.557 141.567L310.559 141.56L309.707 141.27ZM308.242 145.957L307.374 145.718L307.372 145.726L307.37 145.733L308.242 145.957ZM307.246 150.41L306.362 150.243L306.36 150.253L306.358 150.262L307.246 150.41ZM309.004 160.781L308.328 161.375L308.336 161.384L309.004 160.781ZM323.242 161.484L322.866 160.667L322.861 160.669L323.242 161.484ZM330.508 156.387L331.128 157.039L331.128 157.039L330.508 156.387ZM337.773 147.773L338.509 148.292L338.512 148.288L337.773 147.773ZM345.332 135.645L346.115 136.089L346.116 136.087L345.332 135.645ZM348.379 130.254L348.897 129.518L348.084 128.946L347.595 129.811L348.379 130.254ZM349.961 131.367L350.744 131.81L351.146 131.1L350.479 130.631L349.961 131.367ZM346.914 136.758L347.697 137.201L347.698 137.201L346.914 136.758ZM338.711 149.883L337.975 149.364L337.974 149.366L338.711 149.883ZM330.918 159.023L331.529 159.684L331.529 159.684L330.918 159.023ZM308.066 165L308.404 164.166L308.394 164.162L308.066 165ZM303.555 161.953L304.22 161.347L304.215 161.341L304.21 161.336L303.555 161.953ZM300.566 144.199L301.447 144.384L301.45 144.37L300.566 144.199ZM302.676 136.582L301.83 136.274L301.827 136.282L302.676 136.582ZM323.711 76.6992L323.075 76.0628L323.068 76.0693L323.062 76.0759L323.711 76.6992ZM330.684 76.6992L330.034 77.3225L330.047 77.3357L330.06 77.3485L330.684 76.6992ZM331.738 82.0898L330.914 81.7291L330.908 81.7423L330.903 81.7556L331.738 82.0898ZM330.684 83.6133L330.075 82.9498L330.061 82.9631L330.047 82.9769L330.684 83.6133ZM329.102 84.668L329.436 85.5036L329.449 85.4983L329.462 85.4925L329.102 84.668ZM323.711 83.6719L323.075 84.3083L323.081 84.315L323.088 84.3217L323.711 83.6719ZM317.617 96.4664H326.289V94.6664H317.617V96.4664ZM325.443 95.2584L310.502 136.274L312.193 136.89L327.135 95.8745L325.443 95.2584ZM310.501 136.278C309.952 137.806 309.404 139.373 308.855 140.979L310.559 141.56C311.104 139.963 311.65 138.405 312.195 136.886L310.501 136.278ZM308.858 140.972C308.304 142.554 307.81 144.136 307.374 145.718L309.11 146.196C309.534 144.653 310.016 143.11 310.557 141.567L308.858 140.972ZM307.37 145.733C306.975 147.274 306.639 148.777 306.362 150.243L308.13 150.577C308.4 149.152 308.728 147.687 309.114 146.181L307.37 145.733ZM306.358 150.262C306.117 151.709 305.995 153.068 305.995 154.336H307.795C307.795 153.182 307.906 151.924 308.134 150.558L306.358 150.262ZM305.995 154.336C305.995 157.19 306.742 159.569 308.328 161.375L309.68 160.187C308.453 158.79 307.795 156.872 307.795 154.336H305.995ZM308.336 161.384C310.011 163.24 312.525 164.084 315.684 164.084V162.284C312.827 162.284 310.888 161.525 309.672 160.178L308.336 161.384ZM315.684 164.084C318.435 164.084 321.085 163.487 323.624 162.3L322.861 160.669C320.556 161.747 318.166 162.284 315.684 162.284V164.084ZM323.619 162.302C326.186 161.12 328.688 159.359 331.128 157.039L329.888 155.734C327.562 157.946 325.22 159.583 322.866 160.667L323.619 162.302ZM331.128 157.039C333.602 154.685 336.062 151.766 338.509 148.292L337.038 147.255C334.642 150.656 332.257 153.48 329.887 155.735L331.128 157.039ZM338.512 148.288C340.953 144.784 343.487 140.717 346.115 136.089L344.549 135.2C341.943 139.791 339.438 143.81 337.035 147.259L338.512 148.288ZM346.116 136.087L349.162 130.697L347.595 129.811L344.549 135.202L346.116 136.087ZM347.861 130.99L349.443 132.103L350.479 130.631L348.897 129.518L347.861 130.99ZM349.177 130.924L346.131 136.315L347.698 137.201L350.744 131.81L349.177 130.924ZM346.131 136.315C343.29 141.334 340.572 145.683 337.975 149.364L339.446 150.402C342.085 146.661 344.835 142.259 347.697 137.201L346.131 136.315ZM337.974 149.366C335.424 152.998 332.867 155.994 330.307 158.363L331.529 159.684C334.203 157.209 336.842 154.111 339.448 150.4L337.974 149.366ZM330.307 158.362C327.789 160.69 325.236 162.405 322.649 163.53L323.367 165.181C326.171 163.962 328.891 162.123 331.529 159.684L330.307 158.362ZM322.649 163.53C320.071 164.651 317.323 165.213 314.395 165.213V167.013C317.56 167.013 320.554 166.404 323.367 165.181L322.649 163.53ZM314.395 165.213C312.104 165.213 310.113 164.857 308.404 164.166L307.729 165.834C309.692 166.628 311.919 167.013 314.395 167.013V165.213ZM308.394 164.162C306.716 163.505 305.331 162.565 304.22 161.347L302.89 162.56C304.2 163.997 305.823 165.088 307.738 165.838L308.394 164.162ZM304.21 161.336C303.057 160.111 302.183 158.626 301.596 156.864L299.888 157.433C300.551 159.421 301.553 161.139 302.899 162.57L304.21 161.336ZM301.596 156.864C301.006 155.094 300.705 153.103 300.705 150.879H298.905C298.905 153.265 299.228 155.452 299.888 157.433L301.596 156.864ZM300.705 150.879C300.705 148.921 300.95 146.758 301.447 144.384L299.686 144.015C299.168 146.485 298.905 148.774 298.905 150.879H300.705ZM301.45 144.37C301.909 141.998 302.6 139.502 303.524 136.882L301.827 136.282C300.877 138.975 300.161 141.557 299.683 144.028L301.45 144.37ZM303.521 136.89L318.463 95.8745L316.772 95.2584L301.83 136.274L303.521 136.89ZM323.205 80.2148C323.205 79.0774 323.585 78.1296 324.36 77.3225L323.062 76.0759C321.962 77.222 321.405 78.6179 321.405 80.2148H323.205ZM324.347 77.3356C325.157 76.5259 326.101 76.1344 327.227 76.1344V74.3344C325.618 74.3344 324.218 74.9194 323.075 76.0628L324.347 77.3356ZM327.227 76.1344C328.351 76.1344 329.268 76.5247 330.034 77.3225L331.333 76.0759C330.224 74.9206 328.836 74.3344 327.227 74.3344V76.1344ZM330.06 77.3485C330.858 78.1144 331.248 79.0314 331.248 80.1562H333.048C333.048 78.5468 332.462 77.1591 331.307 76.05L330.06 77.3485ZM331.248 80.1562C331.248 80.6927 331.139 81.2147 330.914 81.7291L332.563 82.4506C332.885 81.715 333.048 80.9479 333.048 80.1562H331.248ZM330.903 81.7556C330.719 82.2151 330.445 82.6107 330.075 82.9498L331.292 84.2767C331.859 83.7565 332.289 83.1364 332.574 82.4241L330.903 81.7556ZM330.047 82.9769C329.706 83.3181 329.276 83.6095 328.741 83.8434L329.462 85.4925C330.178 85.1796 330.802 84.7679 331.32 84.2497L330.047 82.9769ZM328.767 83.8323C328.299 84.0196 327.77 84.1195 327.168 84.1195V85.9195C327.973 85.9195 328.732 85.7851 329.436 85.5036L328.767 83.8323ZM327.168 84.1195C326.019 84.1195 325.094 83.7508 324.334 83.0221L323.088 84.3217C324.203 85.3898 325.582 85.9195 327.168 85.9195V84.1195ZM324.347 83.0355C323.584 82.2726 323.205 81.3517 323.205 80.2148H321.405C321.405 81.8124 321.962 83.1962 323.075 84.3083L324.347 83.0355ZM343.809 95.5664V94.6664H342.909V95.5664H343.809ZM360.918 95.5664V96.4664H361.549L361.764 95.8732L360.918 95.5664ZM366.484 80.2148V79.3148H365.853L365.638 79.9081L366.484 80.2148ZM375.156 80.2148L376.002 80.5216L376.44 79.3148H375.156V80.2148ZM369.59 95.5664L368.744 95.2596L368.306 96.4664H369.59V95.5664ZM387.168 95.5664H388.068V94.6664H387.168V95.5664ZM387.168 97.9102V98.8102H388.068V97.9102H387.168ZM368.711 97.9102V97.0102H368.081L367.865 97.6026L368.711 97.9102ZM354.648 136.582L353.803 136.274L353.801 136.278L354.648 136.582ZM353.008 141.27L352.156 140.979L352.153 140.988L352.15 140.998L353.008 141.27ZM351.602 146.016L350.734 145.777L350.732 145.785L350.73 145.792L351.602 146.016ZM350.605 150.469L349.721 150.301L349.719 150.311L349.718 150.321L350.605 150.469ZM352.422 160.781L351.754 161.384L351.762 161.393L352.422 160.781ZM383.535 147.949L384.251 148.494L384.254 148.491L383.535 147.949ZM391.445 135.645L390.662 135.202L390.661 135.204L391.445 135.645ZM394.492 130.254L395.01 129.518L394.198 128.946L393.709 129.811L394.492 130.254ZM396.074 131.367L396.858 131.81L397.259 131.1L396.592 130.631L396.074 131.367ZM393.027 136.758L392.244 136.315L392.244 136.316L393.027 136.758ZM384.062 150.586L384.773 151.139L384.775 151.135L384.062 150.586ZM375.449 159.609L374.883 158.909L374.879 158.913L375.449 159.609ZM366.836 164.59L366.541 163.739L366.538 163.741L366.836 164.59ZM351.484 165L351.822 164.166L351.814 164.162L351.806 164.16L351.484 165ZM346.914 161.953L347.579 161.347L347.574 161.341L347.569 161.336L346.914 161.953ZM344.102 157.148L344.955 156.864L344.953 156.856L344.95 156.848L344.102 157.148ZM345.977 136.582L346.821 136.893L346.822 136.89L345.977 136.582ZM360.039 97.9102L360.885 98.2177L361.324 97.0102H360.039V97.9102ZM343.809 97.9102H342.909V98.8102H343.809V97.9102ZM343.809 96.4664H360.918V94.6664H343.809V96.4664ZM361.764 95.8732L367.33 80.5216L365.638 79.9081L360.072 95.2596L361.764 95.8732ZM366.484 81.1148H375.156V79.3148H366.484V81.1148ZM374.31 79.9081L368.744 95.2596L370.436 95.8732L376.002 80.5216L374.31 79.9081ZM369.59 96.4664H387.168V94.6664H369.59V96.4664ZM386.268 95.5664V97.9102H388.068V95.5664H386.268ZM387.168 97.0102H368.711V98.8102H387.168V97.0102ZM367.865 97.6026L353.803 136.274L355.494 136.89L369.557 98.2177L367.865 97.6026ZM353.801 136.278C353.253 137.806 352.704 139.373 352.156 140.979L353.86 141.56C354.405 139.963 354.95 138.405 355.496 136.886L353.801 136.278ZM352.15 140.998C351.639 142.61 351.167 144.203 350.734 145.777L352.469 146.254C352.896 144.703 353.361 143.132 353.866 141.542L352.15 140.998ZM350.73 145.792C350.335 147.333 349.998 148.836 349.721 150.301L351.49 150.636C351.759 149.211 352.087 147.745 352.473 146.239L350.73 145.792ZM349.718 150.321C349.477 151.766 349.354 153.105 349.354 154.336H351.154C351.154 153.223 351.265 151.984 351.493 150.617L349.718 150.321ZM349.354 154.336C349.354 157.196 350.125 159.579 351.754 161.384L353.09 160.178C351.829 158.78 351.154 156.866 351.154 154.336H349.354ZM351.762 161.393C353.471 163.237 355.976 164.084 359.102 164.084V162.284C356.29 162.284 354.341 161.528 353.082 160.169L351.762 161.393ZM359.102 164.084C362.109 164.084 365.035 163.514 367.873 162.379L367.205 160.707C364.575 161.759 361.876 162.284 359.102 162.284V164.084ZM367.873 162.379C370.714 161.242 373.492 159.506 376.209 157.189L375.041 155.819C372.446 158.033 369.833 159.656 367.205 160.707L367.873 162.379ZM376.209 157.189C378.924 154.873 381.604 151.971 384.251 148.494L382.819 147.404C380.232 150.802 377.638 153.604 375.041 155.819L376.209 157.189ZM384.254 148.491C386.9 144.975 389.559 140.839 392.23 136.085L390.661 135.204C388.02 139.903 385.404 143.97 382.816 147.408L384.254 148.491ZM392.229 136.087L395.276 130.697L393.709 129.811L390.662 135.202L392.229 136.087ZM393.974 130.99L395.556 132.103L396.592 130.631L395.01 129.518L393.974 130.99ZM395.291 130.924L392.244 136.315L393.811 137.201L396.858 131.81L395.291 130.924ZM392.244 136.316C389.172 141.758 386.207 146.329 383.35 150.036L384.775 151.135C387.699 147.343 390.71 142.695 393.811 137.2L392.244 136.316ZM383.352 150.033C380.493 153.704 377.669 156.658 374.883 158.909L376.015 160.309C378.933 157.951 381.851 154.89 384.773 151.139L383.352 150.033ZM374.879 158.913C372.134 161.162 369.355 162.764 366.541 163.739L367.131 165.44C370.176 164.384 373.139 162.666 376.02 160.306L374.879 158.913ZM366.538 163.741C363.745 164.722 360.838 165.213 357.812 165.213V167.013C361.037 167.013 364.146 166.489 367.134 165.439L366.538 163.741ZM357.812 165.213C355.522 165.213 353.531 164.857 351.822 164.166L351.147 165.834C353.11 166.628 355.337 167.013 357.812 167.013V165.213ZM351.806 164.16C350.089 163.502 348.687 162.562 347.579 161.347L346.249 162.56C347.563 164.001 349.208 165.092 351.162 165.84L351.806 164.16ZM347.569 161.336C346.416 160.111 345.543 158.626 344.955 156.864L343.248 157.433C343.911 159.421 344.912 161.139 346.259 162.57L347.569 161.336ZM344.95 156.848C344.325 155.083 344.005 153.097 344.005 150.879H342.205C342.205 153.27 342.55 155.463 343.253 157.449L344.95 156.848ZM344.005 150.879C344.005 148.916 344.232 146.747 344.692 144.37L342.925 144.028C342.448 146.495 342.205 148.78 342.205 150.879H344.005ZM344.692 144.37C345.151 142.002 345.859 139.51 346.821 136.893L345.132 136.271C344.141 138.967 343.404 141.553 342.925 144.028L344.692 144.37ZM346.822 136.89L360.885 98.2177L359.193 97.6026L345.131 136.274L346.822 136.89ZM360.039 97.0102H343.809V98.8102H360.039V97.0102ZM344.709 97.9102V95.5664H342.909V97.9102H344.709ZM407.09 95.5664V94.6664H406.46L406.244 95.2584L407.09 95.5664ZM415.762 95.5664L416.607 95.8745L417.047 94.6664H415.762V95.5664ZM400.82 136.582L399.975 136.274L399.973 136.278L400.82 136.582ZM399.18 141.27L400.029 141.567L400.031 141.56L399.18 141.27ZM397.715 145.957L396.847 145.718L396.845 145.726L396.843 145.733L397.715 145.957ZM396.719 150.41L395.834 150.243L395.833 150.253L395.831 150.262L396.719 150.41ZM412.715 161.484L413.096 162.3L413.107 162.295L412.715 161.484ZM419.922 156.328L420.542 156.98L420.548 156.975L419.922 156.328ZM427.129 147.715L426.397 147.191L426.393 147.196L427.129 147.715ZM434.805 135.645L434.027 135.192L434.025 135.195L434.805 135.645ZM437.91 130.312L438.688 130.765L438.729 130.695L438.756 130.619L437.91 130.312ZM450.508 95.5664V94.6664H449.877L449.662 95.2596L450.508 95.5664ZM459.238 95.5664L460.084 95.8742L460.524 94.6664H459.238V95.5664ZM431.582 171.562L430.736 171.255L430.736 171.257L431.582 171.562ZM418.867 189.609L418.334 188.885L418.328 188.889L418.867 189.609ZM389.336 194.355L389.675 193.522L389.67 193.52L389.336 194.355ZM383.242 189.551L383.981 189.036L383.973 189.026L383.965 189.015L383.242 189.551ZM381.484 186.152L382.341 185.876L382.338 185.868L381.484 186.152ZM382.305 178.477L382.966 179.087L382.972 179.08L382.979 179.073L382.305 178.477ZM385.938 185.215L386.34 184.41L386.316 184.398L386.292 184.388L385.938 185.215ZM384.648 185.156L385.397 185.655L385.428 185.609L385.453 185.559L384.648 185.156ZM385.586 188.789L386.306 188.249L386.3 188.242L386.295 188.234L385.586 188.789ZM388.516 191.191L388.957 190.407L388.947 190.402L388.938 190.397L388.516 191.191ZM392.969 192.773L393.173 191.897L393.161 191.894L393.149 191.892L392.969 192.773ZM412.891 188.262L412.303 187.58L412.296 187.586L412.289 187.593L412.891 188.262ZM422.734 172.031L423.579 172.342L423.58 172.339L422.734 172.031ZM434.219 140.508L435.064 140.816L433.443 140.051L434.219 140.508ZM426.719 151.934L427.437 152.476L427.44 152.472L426.719 151.934ZM419.395 159.902L418.809 159.219L418.803 159.224L419.395 159.902ZM397.539 165L397.876 164.166L397.867 164.162L397.539 165ZM393.027 161.953L393.692 161.347L393.688 161.341L393.683 161.336L393.027 161.953ZM390.039 144.199L390.92 144.384L390.923 144.37L390.039 144.199ZM392.148 136.582L391.303 136.274L391.3 136.282L392.148 136.582ZM407.09 96.4664H415.762V94.6664H407.09V96.4664ZM414.916 95.2584L399.975 136.274L401.666 136.89L416.607 95.8745L414.916 95.2584ZM399.973 136.278C399.425 137.806 398.876 139.373 398.328 140.979L400.031 141.56C400.577 139.963 401.122 138.405 401.667 136.886L399.973 136.278ZM398.33 140.972C397.777 142.554 397.282 144.136 396.847 145.718L398.583 146.196C399.007 144.653 399.489 143.11 400.029 141.567L398.33 140.972ZM396.843 145.733C396.448 147.274 396.112 148.777 395.834 150.243L397.603 150.577C397.873 149.152 398.2 147.687 398.587 146.181L396.843 145.733ZM395.831 150.262C395.59 151.709 395.467 153.068 395.467 154.336H397.267C397.267 153.182 397.379 151.924 397.607 150.558L395.831 150.262ZM395.467 154.336C395.467 157.196 396.238 159.579 397.867 161.384L399.203 160.178C397.942 158.78 397.267 156.866 397.267 154.336H395.467ZM397.867 161.384C399.54 163.238 402.032 164.084 405.156 164.084V162.284C402.343 162.284 400.421 161.528 399.203 160.178L397.867 161.384ZM405.156 164.084C407.908 164.084 410.558 163.487 413.096 162.3L412.334 160.669C410.028 161.747 407.639 162.284 405.156 162.284V164.084ZM413.107 162.295C415.629 161.074 418.106 159.296 420.542 156.98L419.302 155.676C416.972 157.891 414.645 159.551 412.323 160.674L413.107 162.295ZM420.548 156.975C422.98 154.622 425.418 151.705 427.865 148.233L426.393 147.196C423.996 150.599 421.629 153.425 419.296 155.681L420.548 156.975ZM427.861 148.239C430.343 144.772 432.917 140.723 435.584 136.094L434.025 135.195C431.38 139.785 428.837 143.783 426.397 147.191L427.861 148.239ZM435.582 136.097L438.688 130.765L437.132 129.86L434.027 135.192L435.582 136.097ZM438.756 130.619L451.354 95.8732L449.662 95.2596L437.064 130.006L438.756 130.619ZM450.508 96.4664H459.238V94.6664H450.508V96.4664ZM458.393 95.2586L430.736 171.255L432.428 171.87L460.084 95.8742L458.393 95.2586ZM430.736 171.257C427.932 179.014 423.788 184.869 418.334 188.885L419.401 190.334C425.196 186.068 429.529 179.892 432.428 171.868L430.736 171.257ZM418.328 188.889C412.916 192.938 406.412 194.979 398.77 194.979V196.779C406.752 196.779 413.646 194.64 419.406 190.33L418.328 188.889ZM398.77 194.979C395.053 194.979 392.033 194.48 389.675 193.522L388.997 195.189C391.639 196.262 394.908 196.779 398.77 196.779V194.979ZM389.67 193.52C387.29 192.568 385.401 191.076 383.981 189.036L382.504 190.065C384.13 192.401 386.304 194.112 389.002 195.191L389.67 193.52ZM383.965 189.015C383.241 188.037 382.701 186.991 382.341 185.876L380.628 186.429C381.049 187.736 381.681 188.956 382.519 190.086L383.965 189.015ZM382.338 185.868C381.976 184.783 381.798 183.707 381.798 182.637H379.998C379.998 183.91 380.211 185.178 380.631 186.437L382.338 185.868ZM381.798 182.637C381.798 181.041 382.22 179.895 382.966 179.087L381.643 177.866C380.514 179.09 379.998 180.716 379.998 182.637H381.798ZM382.979 179.073C383.675 178.286 384.66 177.853 386.055 177.853V176.053C384.247 176.053 382.731 176.636 381.631 177.88L382.979 179.073ZM386.055 177.853C387.256 177.853 388.085 178.175 388.657 178.719L389.897 177.414C388.907 176.473 387.588 176.053 386.055 176.053V177.853ZM388.657 178.719C389.22 179.253 389.549 180.029 389.549 181.172H391.349C391.349 179.658 390.897 178.364 389.897 177.414L388.657 178.719ZM389.549 181.172C389.549 182.257 389.265 183.051 388.767 183.636L390.139 184.802C390.97 183.824 391.349 182.587 391.349 181.172H389.549ZM388.767 183.636C388.272 184.218 387.682 184.491 386.934 184.491V186.291C388.216 186.291 389.306 185.782 390.139 184.802L388.767 183.636ZM386.934 184.491C386.565 184.491 386.394 184.437 386.34 184.41L385.535 186.02C385.95 186.227 386.443 186.291 386.934 186.291V184.491ZM386.292 184.388C385.901 184.22 385.487 184.139 385.059 184.139V185.939C385.255 185.939 385.427 185.975 385.583 186.042L386.292 184.388ZM385.059 184.139C384.904 184.139 384.717 184.15 384.533 184.203C384.37 184.25 384.03 184.381 383.843 184.754L385.453 185.559C385.306 185.853 385.054 185.926 385.028 185.934C384.98 185.947 384.978 185.939 385.059 185.939V184.139ZM383.9 184.657C383.765 184.858 383.706 185.076 383.675 185.244C383.643 185.422 383.631 185.612 383.631 185.801H385.431C385.431 185.678 385.439 185.603 385.446 185.566C385.449 185.549 385.45 185.549 385.446 185.562C385.442 185.574 385.428 185.609 385.397 185.655L383.9 184.657ZM383.631 185.801C383.631 187.105 384.056 188.294 384.877 189.344L386.295 188.234C385.71 187.487 385.431 186.684 385.431 185.801H383.631ZM384.866 189.329C385.663 190.392 386.75 191.273 388.093 191.986L388.938 190.397C387.781 189.782 386.915 189.061 386.306 188.249L384.866 189.329ZM388.074 191.976C389.422 192.734 390.998 193.289 392.788 193.655L393.149 191.892C391.502 191.555 390.11 191.055 388.957 190.407L388.074 191.976ZM392.765 193.65C394.522 194.059 396.447 194.259 398.535 194.259V192.459C396.561 192.459 394.775 192.269 393.173 191.897L392.765 193.65ZM398.535 194.259C401.473 194.259 404.191 193.837 406.68 192.98L406.094 191.278C403.817 192.062 401.3 192.459 398.535 192.459V194.259ZM406.68 192.98C409.182 192.119 411.454 190.766 413.493 188.931L412.289 187.593C410.421 189.273 408.357 190.499 406.094 191.278L406.68 192.98ZM413.479 188.943C415.557 187.15 417.413 184.864 419.055 182.1L417.508 181.181C415.946 183.808 414.209 185.936 412.303 187.58L413.479 188.943ZM419.055 182.1C420.691 179.347 422.197 176.092 423.579 172.342L421.89 171.72C420.537 175.392 419.075 178.543 417.508 181.181L419.055 182.1ZM423.58 172.339L435.064 140.816L433.373 140.2L421.889 171.723L423.58 172.339ZM433.443 140.051C430.878 144.404 428.396 148.185 425.998 151.395L427.44 152.472C429.885 149.198 432.403 145.361 434.994 140.965L433.443 140.051ZM426.001 151.391C423.609 154.554 421.211 157.16 418.809 159.219L419.98 160.586C422.5 158.426 424.985 155.719 427.437 152.476L426.001 151.391ZM418.803 159.224C416.445 161.278 414.049 162.782 411.619 163.754L412.287 165.425C414.935 164.366 417.501 162.745 419.986 160.581L418.803 159.224ZM411.619 163.754C409.191 164.726 406.609 165.213 403.867 165.213V167.013C406.828 167.013 409.637 166.485 412.287 165.425L411.619 163.754ZM403.867 165.213C401.577 165.213 399.586 164.857 397.876 164.166L397.202 165.834C399.164 166.628 401.392 167.013 403.867 167.013V165.213ZM397.867 164.162C396.189 163.505 394.803 162.565 393.692 161.347L392.362 162.56C393.673 163.997 395.295 165.088 397.211 165.838L397.867 164.162ZM393.683 161.336C392.529 160.111 391.656 158.626 391.069 156.864L389.361 157.433C390.024 159.421 391.025 161.139 392.372 162.57L393.683 161.336ZM391.069 156.864C390.479 155.094 390.177 153.103 390.177 150.879H388.377C388.377 153.265 388.701 155.452 389.361 157.433L391.069 156.864ZM390.177 150.879C390.177 148.921 390.422 146.758 390.92 144.384L389.158 144.015C388.64 146.485 388.377 148.774 388.377 150.879H390.177ZM390.923 144.37C391.382 141.998 392.072 139.502 392.997 136.882L391.3 136.282C390.349 138.975 389.634 141.557 389.155 144.028L390.923 144.37ZM392.994 136.89L407.935 95.8745L406.244 95.2584L391.303 136.274L392.994 136.89Z" fill="black"/>
<path d="M202.191 42.5985C228.191 35.0985 300.191 12.0985 309.691 23.5985" stroke="black" stroke-width="3"/>
<path d="M313.191 25.0985L308.691 24.0985H312.691L313.191 25.0985Z" stroke="black"/>
<path d="M11.9413 18.8414C30.2635 65.8928 93.1763 49.6399 123.691 55.9646C118.193 63.2517 112.262 78.7227 108.846 86.4881C104.31 96.8001 108.846 86.4881 100.691 105.875C95.5963 117.986 83.9669 121.824 77.9189 114.949C68.9845 114.949 48.5589 113.134 38.3323 105.875C28.1058 98.615 52.7649 96.8001 66.3728 96.8001C61.2871 94.6002 45.6724 89.4579 23.8997 86.4881C2.12712 83.5182 14.8278 76.7261 23.8997 73.7012H38.3323C38.3323 69.1639 23.2148 65.2832 11.9413 55.9646C-1.80905 44.5985 -0.809047 -13.9015 11.9413 18.8414Z" stroke="black" stroke-width="3"/>
<path d="M585.669 12.0368C566.54 34.7272 484.615 46.8324 458 51.1298L470.81 83.3606C481.057 93.6881 480.744 103.108 510.5 107.5C529 110.231 523.212 104.288 522.5 93.6881C531.324 94.5476 555.007 106.639 563.038 93.6881C569.443 83.3606 555.495 87.9445 542.97 83.3606C552.364 83.3606 581.57 65.9989 585.669 61.8734C596.343 51.1298 558.911 62.0166 542.97 61.8734C556.349 58.2922 577.556 46.4163 585.669 38.6809C602.321 22.803 609.58 -16.3263 585.669 12.0368Z" stroke="black" stroke-width="3"/>
<path d="M316.5 29.0871C304.805 0.582974 211.145 40.4046 202.377 40.3106C195.921 56.9699 221.725 58.1095 235.434 56.5969C266.354 56.9283 325.856 51.8904 316.5 29.0871Z" stroke="black" stroke-width="3"/>
</svg>
