<svg width="579" height="200" viewBox="0 0 579 200" fill="none" xmlns="http://www.w3.org/2000/svg">
<path d="M146.82 60.568C158.384 59.784 168.576 59.392 177.396 59.392C203.072 59.392 215.91 74.974 215.91 106.138C215.91 141.026 201.896 158.47 173.868 158.47C165.636 158.47 156.62 157.735 146.82 156.265V60.568ZM173.868 148.18C180.728 148.18 185.922 146.465 189.45 143.035C192.978 139.605 195.281 135.097 196.359 129.511C197.437 123.827 197.976 116.722 197.976 108.196C197.976 96.828 196.457 87.567 193.419 80.413C190.381 73.259 184.697 69.682 176.367 69.682C172.741 69.682 168.625 69.927 164.019 70.417V147.298C167.547 147.886 170.83 148.18 173.868 148.18ZM278.011 136.273C280.265 137.351 281.392 139.458 281.392 142.594C281.392 146.122 280.216 149.258 277.864 152.002C275.512 154.648 272.474 156.657 268.75 158.029C265.026 159.499 261.253 160.234 257.431 160.234C246.651 160.234 238.664 156.755 233.47 149.797C228.276 142.741 225.679 133.284 225.679 121.426C225.679 108.784 228.472 98.592 234.058 90.85C239.742 83.01 248.317 79.09 259.783 79.09C267.035 79.09 272.866 81.001 277.276 84.823C281.686 88.547 283.891 93.839 283.891 100.699C283.891 109.225 280.902 115.203 274.924 118.633C269.044 122.063 261.008 123.778 250.816 123.778C247.974 123.778 245.279 123.68 242.731 123.484C243.025 131.226 244.299 137.4 246.553 142.006C248.905 146.612 253.021 148.915 258.901 148.915C263.213 148.915 266.986 147.837 270.22 145.681C273.552 143.427 276.149 140.291 278.011 136.273ZM257.431 87.469C252.139 87.469 248.415 90.262 246.259 95.848C244.103 101.336 242.927 108.098 242.731 116.134C245.671 116.33 247.827 116.428 249.199 116.428C261.547 116.428 267.721 111.479 267.721 101.581C267.721 97.563 266.839 94.231 265.075 91.585C263.409 88.841 260.861 87.469 257.431 87.469ZM306.236 51.16C309.47 51.16 312.067 51.944 314.027 53.512C316.085 55.08 317.114 57.334 317.114 60.274C317.114 63.312 316.036 65.664 313.88 67.33C311.822 68.898 309.127 69.682 305.795 69.682C302.561 69.682 299.964 68.898 298.004 67.33C296.044 65.762 295.064 63.508 295.064 60.568C295.064 57.53 296.093 55.227 298.151 53.659C300.307 51.993 303.002 51.16 306.236 51.16ZM313.88 144.946C313.88 149.748 315.399 152.982 318.437 154.648C317.653 156.118 316.379 157.245 314.615 158.029C312.851 158.813 310.94 159.205 308.882 159.205C305.158 159.205 302.365 158.127 300.503 155.971C298.641 153.815 297.71 150.777 297.71 146.857V82.03H313.88V144.946ZM324.925 88.645L324.778 84.235C329.188 82.471 333.353 80.119 337.273 77.179C341.291 74.239 344.672 71.005 347.416 67.477H351.973V82.03H365.497V88.645H351.679V142.153C351.679 145.093 352.218 147.298 353.296 148.768C354.374 150.238 356.089 151.169 358.441 151.561C357.951 153.815 356.628 155.628 354.472 157C352.414 158.47 350.013 159.205 347.269 159.205C339.331 159.205 335.362 154.697 335.362 145.681V88.645H324.925ZM428.289 82.03L394.92 185.371L378.75 183.46L393.303 149.944H385.953L367.284 82.03H384.042L398.007 140.095L413.001 82.03H428.289Z" fill="black"/>
<path d="M177.191 30.5985C203.191 23.0985 275.191 0.0984754 284.691 11.5985" stroke="black" stroke-width="3"/>
<path d="M288.191 13.0985L283.691 12.0985H287.691L288.191 13.0985Z" stroke="black"/>
<path d="M11.9413 11.8414C30.2635 58.8928 93.1763 42.6399 123.691 48.9646C118.193 56.2517 112.262 71.7227 108.846 79.4881C104.31 89.8001 108.846 79.4881 100.691 98.8746C95.5963 110.986 83.9669 114.824 77.9189 107.949C68.9845 107.949 48.5589 106.134 38.3323 98.8746C28.1058 91.615 52.7649 89.8001 66.3728 89.8001C61.2871 87.6002 45.6724 82.4579 23.8997 79.4881C2.12712 76.5182 14.8278 69.7261 23.8997 66.7012H38.3323C38.3323 62.1639 23.2148 58.2832 11.9413 48.9646C-1.80905 37.5985 -0.809047 -20.9015 11.9413 11.8414Z" stroke="black" stroke-width="3"/>
<path d="M561.36 19.1353C542.231 41.8258 460.306 53.9309 433.691 58.2283L446.501 90.4591C456.748 100.787 456.435 110.206 486.191 114.599C504.691 117.329 498.903 111.387 498.191 100.787C507.015 101.646 530.698 113.738 538.729 100.787C545.134 90.4591 531.186 95.043 518.661 90.4591C528.055 90.4591 557.261 73.0974 561.36 68.9719C572.034 58.2283 534.602 69.1152 518.661 68.9719C532.04 65.3907 553.247 53.5148 561.36 45.7794C578.012 29.9015 585.271 -9.22782 561.36 19.1353Z" stroke="black" stroke-width="3"/>
<path d="M291.5 17.0871C279.805 -11.417 186.145 28.4046 177.377 28.3106C170.921 44.9699 196.725 46.1095 210.434 44.5969C241.354 44.9283 300.856 39.8904 291.5 17.0871Z" stroke="black" stroke-width="3"/>
</svg>
